<?xml version="1.0" standalone="no"?>
<!DOCTYPE svg PUBLIC "-//W3C//DTD SVG 20010904//EN"
 "http://www.w3.org/TR/2001/REC-SVG-20010904/DTD/svg10.dtd">
<svg version="1.0" xmlns="http://www.w3.org/2000/svg"
 width="81.000000pt" height="81.000000pt" viewBox="0 0 81.000000 81.000000"
 preserveAspectRatio="xMidYMid meet">
<metadata>
Created by potrace 1.11, written by Peter Selinger 2001-2013
</metadata>
<g transform="translate(0.000000,81.000000) scale(0.100000,-0.100000)"
fill="#000000" stroke="none">
<path d="M203 688 c-203 -86 -224 -102 -187 -138 28 -26 383 -172 403 -165 9
3 98 40 198 82 179 75 201 90 188 125 -5 12 -381 178 -402 178 -5 0 -95 -37
-200 -82z"/>
<path d="M10 425 c-29 -35 0 -57 198 -142 104 -46 193 -83 197 -83 12 0 358
151 383 167 26 16 27 50 1 66 -13 8 -60 -9 -201 -70 l-184 -80 -178 79 c-98
43 -184 78 -191 78 -7 0 -18 -7 -25 -15z"/>
<path d="M12 278 c-16 -16 -15 -43 1 -56 13 -10 380 -172 391 -172 12 0 380
161 394 172 17 14 12 48 -10 61 -12 8 -57 -7 -200 -69 l-183 -80 -180 78 c-99
43 -185 78 -190 78 -6 0 -16 -5 -23 -12z"/>
</g>
</svg>
